<svg height="512pt" viewBox="0 0 512 511" width="512pt" xmlns="http://www.w3.org/2000/svg"><path d="m495.964844 460.265625-137.566406-137.574219c-10.578126 13.46875-22.730469 25.628906-36.207032 36.207032l137.566406 137.566406c10.003907 10.003906 26.207032 10.003906 36.207032 0 10.003906-10 10.003906-26.203125 0-36.199219zm0 0" fill="#7383bf"/><path d="m435.199219 222.367188c0 117.820312-95.511719 213.332031-213.332031 213.332031-117.820313 0-213.332032-95.511719-213.332032-213.332031 0-117.820313 95.511719-213.332032 213.332032-213.332032 117.820312 0 213.332031 95.511719 213.332031 213.332032zm0 0" fill="#c6e2f7"/><path d="m278.902344 366.871094c15.222656-12.101563 30.285156-24.414063 44.785156-37.386719 11.996094-10.734375 28.328125-22.007813 34.140625-37.5625 2.570313-6.871094 8.660156-9.609375 14.480469-9.328125 7.476562-18.636719 11.691406-38.917969 11.691406-60.226562 0-19.132813-3.480469-37.402344-9.566406-54.441407-6.082032.648438-12.636719-2.101562-15.179688-9.429687-11.742187-33.871094-53.710937-45.074219-76.082031-70.683594-4.550781-5.203125-4.34375-11.347656-1.742187-16.136719-18.449219-7.304687-38.511719-11.441406-59.5625-11.441406-31.777344 0-61.328126 9.273437-86.347657 25.078125 4.964844 4.890625 6.449219 12.578125-.554687 18.152344-11.417969 9.078125-20.363282 20.417968-29.382813 31.785156-10 12.605469-19.164062 24.464844-23.226562 40.320312-2.363281 9.207032-11.023438 11.375-17.964844 8.832032-2.933594 12.195312-4.65625 24.867187-4.65625 37.964844 0 89.539062 72.59375 162.132812 162.132813 162.132812 18.328124 0 35.875-3.183594 52.300781-8.789062.042969-3.074219 1.40625-6.195313 4.734375-8.839844zm0 0" fill="#366db6"/><path d="m196.710938 200.375c-21.597657-.511719-37.734376-23.398438-27.863282-43.570312.640625-1.3125 1.382813-2.578126 1.878906-3.949219 4.257813-11.8125 1.628907-30.566407-2.015624-42.179688-2.113282-6.734375-5.46875-13.246093-10.734376-18.058593-2.722656-2.484376-5.871093-4.445313-9.285156-5.8125-2.207031-.878907-9.710937-3.804688-11.894531-2.449219-36.257813 22.402343-62.992187 58.675781-72.855469 101.429687 6.917969 5.945313 16.101563 8.566406 25.242188 8.148438 18.4375-.851563 56.847656.417968 56.847656 25.8125 0 18.382812-7.542969 31.703125-14.335938 39.972656-10.921874 13.300781-19.480468 28.515625-23.296874 45.300781-2.148438 9.429688-3.472657 19.910157-2.746094 30.328125.136718 1.910156 6.679687 6.511719 8.15625 7.824219 2.996094 2.679687 6.09375 5.257813 9.285156 7.714844 6.597656 5.078125 13.585938 9.652343 20.878906 13.664062 7.367188 4.042969 15.046875 7.515625 22.949219 10.359375 3.0625 1.097656 20.8125 8.054688 20.734375 3.703125-.085938-5.113281-.484375-10.214843-1.203125-15.277343-.527344-3.734376-1.238281-7.542969-.613281-11.269532.800781-4.855468 3.789062-9.097656 7.234375-12.613281 25.804687-26.273437 71.238281-51.414063 55.835937-95.617187-.878906-2.523438-1.9375-4.992188-3.132812-7.390626-14.558594-29.234374-34.757813-35.726562-49.066406-36.070312zm0 0" fill="#61b872"/><path d="m374.03125 278.449219-14.042969-14.046875c-4.644531-4.523438-12.023437-6.007813-22.257812-6.007813-24.964844 0-33.285157 42.34375-33.285157 42.34375 0 16.9375-16.523437 23.710938-16.523437 23.710938s-41.796875 10.523437-30.019531 30.023437l13.398437 22.320313c47.539063-15.195313 85.539063-51.726563 102.730469-98.34375zm0 0" fill="#61b872"/><path d="m278.203125 70.300781-2.292969 1.9375c-5.429687 7.117188-6.792968 13.65625-5.746094 23.160157-24.496093 22.675781-6.109374 48.75 1.820313 59.988281 9.179687 13.023437 34.644531 37.640625 65.277344 37.640625 12.65625 0 24.765625-4.308594 35.023437-12.464844l4.410156-3.515625.675782-.5625c-14.464844-49.101563-51.515625-88.519531-99.167969-106.183594zm0 0" fill="#61b872"/><g fill="#4d007e"><path d="m221.867188 444.234375c-122.335938 0-221.867188-99.535156-221.867188-221.867187 0-122.335938 99.53125-221.867188 221.867188-221.867188 122.332031 0 221.867187 99.53125 221.867187 221.867188 0 122.332031-99.535156 221.867187-221.867187 221.867187zm0-426.667969c-112.929688 0-204.800782 91.878906-204.800782 204.800782 0 112.921874 91.871094 204.800781 204.800782 204.800781 112.929687 0 204.800781-91.878907 204.800781-204.800781 0-112.921876-91.871094-204.800782-204.800781-204.800782zm0 0"/><path d="m477.867188 512.484375c-8.738282 0-17.484376-3.328125-24.132813-9.976563l-106.28125-106.28125c-1.726563-1.726562-2.628906-4.105468-2.484375-6.546874.144531-2.441407 1.332031-4.691407 3.25-6.203126 12.921875-10.148437 24.621094-21.847656 34.765625-34.765624 1.511719-1.917969 3.761719-3.097657 6.203125-3.242188 2.476562-.152344 4.820312.757812 6.546875 2.484375l106.273437 106.28125c6.441407 6.441406 9.992188 15.019531 9.992188 24.132813 0 9.113281-3.550781 17.6875-9.992188 24.140624-6.65625 6.648438-15.402343 9.976563-24.140624 9.976563zm-111.691407-121.667969 99.617188 99.625c6.65625 6.648438 17.484375 6.648438 24.140625 0 3.226562-3.226562 5-7.519531 5-12.074218 0-4.558594-1.773438-8.839844-5-12.066407l-99.617188-99.625c-7.417968 8.640625-15.488281 16.722657-24.140625 24.140625zm0 0"/><path d="m221.867188 393.035156c-94.105469 0-170.667969-76.5625-170.667969-170.667968 0-94.105469 76.5625-170.667969 170.667969-170.667969 94.105468 0 170.667968 76.5625 170.667968 170.667969 0 94.105468-76.5625 170.667968-170.667968 170.667968zm0-324.269531c-84.695313 0-153.601563 68.90625-153.601563 153.601563 0 84.691406 68.90625 153.597656 153.601563 153.597656 84.691406 0 153.597656-68.90625 153.597656-153.597656 0-84.695313-68.90625-153.601563-153.597656-153.601563zm0 0"/><path d="m185.285156 388.585938c-4.421875 0-10.589844-1.695313-20.363281-5.324219l-.902344-.332031c-8.269531-2.976563-16.402343-6.648438-24.15625-10.90625-7.648437-4.199219-15.046875-9.035157-21.984375-14.378907-3.351562-2.585937-6.613281-5.289062-9.769531-8.113281l-1.273437-1.015625c-5.648438-4.4375-9.367188-7.707031-9.699219-12.585937-.710938-10.105469.28125-21.148438 2.933593-32.8125 3.832032-16.84375 12.253907-33.269532 25.019532-48.828126 5.65625-6.886718 12.398437-18.472656 12.398437-34.558593 0-3.558594-1.132812-6.289063-3.566406-8.621094-6.699219-6.398437-23.296875-9.625-44.347656-8.667969-11.785157.589844-22.902344-3.070312-31.199219-10.199218-2.40625-2.0625-3.464844-5.296876-2.753906-8.386719 10.152344-44.023438 38.109375-82.945313 76.6875-106.769531 4.257812-2.644532 9.738281-2.132813 19.550781 1.785156 4.410156 1.757812 8.414063 4.265625 11.878906 7.441406 5.835938 5.332031 10.246094 12.664062 13.113281 21.785156 3.296876 10.503906 7.410157 32.359375 1.894532 47.640625-.476563 1.324219-1.109375 2.59375-1.757813 3.855469l-.484375.957031c-3.125 6.375-2.722656 13.644531 1.101563 19.925781 4.144531 6.816407 11.542969 11.179688 19.300781 11.359376 16.707031.390624 40.082031 7.789062 56.5 40.804687 1.390625 2.800781 2.585938 5.613281 3.550781 8.378906 14.191407 40.703125-16.351562 67.421875-40.894531 88.894531-6.132812 5.367188-11.917969 10.433594-16.910156 15.503907-2.859375 2.910156-4.507813 5.613281-4.90625 8.019531-.335938 2.007812.050781 4.617188.457031 7.390625l.191406 1.289063c.765625 5.402343 1.203125 10.898437 1.285157 16.339843.054687 3.21875-1.476563 6.238281-4.085938 8.089844-1.867188 1.347656-3.984375 2.039063-6.808594 2.039063zm-71.253906-56.214844c1.082031.953125 2.636719 2.175781 3.34375 2.730468.929688.722657 1.691406 1.339844 2.117188 1.722657 2.839843 2.542969 5.777343 4.976562 8.796874 7.304687 6.246094 4.8125 12.902344 9.164063 19.789063 12.945313 6.980469 3.832031 14.292969 7.125 21.734375 9.804687l1.058594.382813c3.25 1.210937 5.792968 2.074219 7.773437 2.6875-.167969-1.816407-.382812-3.625-.640625-5.425781l-.179687-1.210938c-.554688-3.765625-1.175781-8.023438-.40625-12.65625.980469-5.9375 4.207031-11.734375 9.5625-17.195312 5.4375-5.535157 11.472656-10.808594 17.855469-16.390626 23.867187-20.882812 46.402343-40.601562 36.007812-70.425781-.757812-2.195312-1.679688-4.328125-2.710938-6.402343-10.003906-20.09375-24.398437-30.929688-41.628906-31.339844-13.515625-.316406-26.339844-7.808594-33.484375-19.558594-6.902343-11.359375-7.566406-24.585938-1.84375-36.292969l.648438-1.28125c.308593-.597656.640625-1.183593.863281-1.808593 3.269531-9.0625 1.339844-25.683594-2.125-36.734376-1.953125-6.214843-4.761719-11.027343-8.351562-14.3125-1.949219-1.78125-4.199219-3.191406-6.691407-4.179687-3.054687-1.230469-4.96875-1.765625-6.023437-2.007813-32.199219 20.515626-55.910156 52.78125-65.863282 89.429688 4.363282 2.363281 9.558594 3.527344 15.140626 3.242188 18.660156-.851563 43.707031.761718 56.925781 13.382812 5.785156 5.527344 8.847656 12.773438 8.847656 20.957031 0 21.136719-8.847656 36.34375-16.273437 45.390625-11.074219 13.488282-18.328126 27.550782-21.570313 41.777344-2.066406 9.113281-2.960937 17.65625-2.671875 25.464844zm-1.015625-.992188"/><path d="m271.292969 385.335938c-2.9375 0-5.746094-1.519532-7.3125-4.136719l-13.398438-22.324219c-4.667969-7.730469-3.558593-14.429688-1.800781-18.679688 6.144531-14.925781 29.839844-22.109374 36.300781-23.816406 2.011719-.980468 10.828125-5.847656 10.828125-15.632812 0-.554688.050782-1.101563.164063-1.648438.390625-2.003906 10.035156-49.226562 41.65625-49.226562 9.105469 0 20.542969.953125 28.214843 8.421875l14.128907 14.128906c2.355469 2.355469 3.125 5.863281 1.972656 8.988281-18.050781 48.9375-58.472656 87.644532-108.144531 103.523438-.871094.273437-1.738282.402344-2.609375.402344zm41.667969-83.667969c-.574219 21.707031-20.917969 30.308593-21.796876 30.675781-.363281.152344-.757812.28125-1.148437.375-9.234375 2.339844-23.210937 8.5-25.457031 13.960938-.214844.511718-.5625 1.375.648437 3.378906l9.847657 16.410156c40.089843-14.832031 72.765624-46.351562 89.003906-85.929688l-10.113282-10.113281c-2.433593-2.363281-7.613281-3.507812-16.222656-3.507812-14.199218.007812-22.644531 24.976562-24.761718 34.75zm0 0"/><path d="m337.269531 201.5625c-34.132812 0-62.1875-26.992188-72.257812-41.25-7.304688-10.351562-28.996094-41.105469-3.652344-68.179688-.425781-9.941406 1.945313-17.425781 7.765625-25.0625.375-.496093.800781-.941406 1.269531-1.339843l2.296875-1.949219c2.355469-1.984375 5.597656-2.558594 8.480469-1.484375 50.230469 18.621094 89.25 60.410156 104.390625 111.769531.953125 3.253906-.101562 6.761719-2.6875 8.945313l-5.265625 4.222656c-11.785156 9.378906-25.738281 14.328125-40.339844 14.328125zm-56.582031-121.113281c-2.195312 3.925781-2.707031 7.902343-2.039062 14.027343.296874 2.6875-.699219 5.359376-2.6875 7.195313-15.789063 14.609375-10.214844 30.078125 2.992187 48.800781 9.652344 13.679688 33.144531 34.03125 58.308594 34.03125 10.710937 0 20.976562-3.667968 29.707031-10.613281l.503906-.402344c-14.066406-41.898437-45.960937-76.09375-86.785156-93.039062zm0 0"/></g></svg>